<svg width="16" height="16" viewBox="0 0 16 16" fill="none" xmlns="http://www.w3.org/2000/svg">
<path d="M8.00016 9.33337C8.13202 9.33337 8.26091 9.29427 8.37054 9.22102C8.48018 9.14777 8.56562 9.04365 8.61608 8.92183C8.66654 8.80001 8.67974 8.66597 8.65402 8.53665C8.6283 8.40733 8.5648 8.28854 8.47157 8.1953C8.37833 8.10207 8.25954 8.03857 8.13022 8.01285C8.0009 7.98713 7.86686 8.00033 7.74504 8.05079C7.62322 8.10125 7.5191 8.18669 7.44585 8.29633C7.3726 8.40596 7.3335 8.53485 7.3335 8.66671C7.3335 8.84352 7.40373 9.01309 7.52876 9.13811C7.65378 9.26314 7.82335 9.33337 8.00016 9.33337ZM11.3335 9.33337C11.4654 9.33337 11.5942 9.29427 11.7039 9.22102C11.8135 9.14777 11.899 9.04365 11.9494 8.92183C11.9999 8.80001 12.0131 8.66597 11.9874 8.53665C11.9616 8.40733 11.8981 8.28854 11.8049 8.1953C11.7117 8.10207 11.5929 8.03857 11.4636 8.01285C11.3342 7.98713 11.2002 8.00033 11.0784 8.05079C10.9566 8.10125 10.8524 8.18669 10.7792 8.29633C10.7059 8.40596 10.6668 8.53485 10.6668 8.66671C10.6668 8.84352 10.7371 9.01309 10.8621 9.13811C10.9871 9.26314 11.1567 9.33337 11.3335 9.33337ZM8.00016 12C8.13202 12 8.26091 11.9609 8.37054 11.8877C8.48018 11.8144 8.56562 11.7103 8.61608 11.5885C8.66654 11.4667 8.67974 11.3326 8.65402 11.2033C8.6283 11.074 8.5648 10.9552 8.47157 10.862C8.37833 10.7687 8.25954 10.7052 8.13022 10.6795C8.0009 10.6538 7.86686 10.667 7.74504 10.7175C7.62322 10.7679 7.5191 10.8534 7.44585 10.963C7.3726 11.0726 7.3335 11.2015 7.3335 11.3334C7.3335 11.5102 7.40373 11.6798 7.52876 11.8048C7.65378 11.9298 7.82335 12 8.00016 12ZM11.3335 12C11.4654 12 11.5942 11.9609 11.7039 11.8877C11.8135 11.8144 11.899 11.7103 11.9494 11.5885C11.9999 11.4667 12.0131 11.3326 11.9874 11.2033C11.9616 11.074 11.8981 10.9552 11.8049 10.862C11.7117 10.7687 11.5929 10.7052 11.4636 10.6795C11.3342 10.6538 11.2002 10.667 11.0784 10.7175C10.9566 10.7679 10.8524 10.8534 10.7792 10.963C10.7059 11.0726 10.6668 11.2015 10.6668 11.3334C10.6668 11.5102 10.7371 11.6798 10.8621 11.8048C10.9871 11.9298 11.1567 12 11.3335 12ZM4.66683 9.33337C4.79868 9.33337 4.92758 9.29427 5.03721 9.22102C5.14684 9.14777 5.23229 9.04365 5.28275 8.92183C5.33321 8.80001 5.34641 8.66597 5.32069 8.53665C5.29496 8.40733 5.23147 8.28854 5.13823 8.1953C5.045 8.10207 4.92621 8.03857 4.79689 8.01285C4.66757 7.98713 4.53352 8.00033 4.41171 8.05079C4.28989 8.10125 4.18577 8.18669 4.11252 8.29633C4.03926 8.40596 4.00016 8.53485 4.00016 8.66671C4.00016 8.84352 4.0704 9.01309 4.19543 9.13811C4.32045 9.26314 4.49002 9.33337 4.66683 9.33337ZM12.6668 2.66671H12.0002V2.00004C12.0002 1.82323 11.9299 1.65366 11.8049 1.52864C11.6799 1.40361 11.5103 1.33337 11.3335 1.33337C11.1567 1.33337 10.9871 1.40361 10.8621 1.52864C10.7371 1.65366 10.6668 1.82323 10.6668 2.00004V2.66671H5.3335V2.00004C5.3335 1.82323 5.26326 1.65366 5.13823 1.52864C5.01321 1.40361 4.84364 1.33337 4.66683 1.33337C4.49002 1.33337 4.32045 1.40361 4.19543 1.52864C4.0704 1.65366 4.00016 1.82323 4.00016 2.00004V2.66671H3.3335C2.80306 2.66671 2.29436 2.87742 1.91928 3.25249C1.54421 3.62757 1.3335 4.13627 1.3335 4.66671V12.6667C1.3335 13.1971 1.54421 13.7058 1.91928 14.0809C2.29436 14.456 2.80306 14.6667 3.3335 14.6667H12.6668C13.1973 14.6667 13.706 14.456 14.081 14.0809C14.4561 13.7058 14.6668 13.1971 14.6668 12.6667V4.66671C14.6668 4.13627 14.4561 3.62757 14.081 3.25249C13.706 2.87742 13.1973 2.66671 12.6668 2.66671ZM13.3335 12.6667C13.3335 12.8435 13.2633 13.0131 13.1382 13.1381C13.0132 13.2631 12.8436 13.3334 12.6668 13.3334H3.3335C3.15669 13.3334 2.98712 13.2631 2.86209 13.1381C2.73707 13.0131 2.66683 12.8435 2.66683 12.6667V6.66671H13.3335V12.6667ZM13.3335 5.33337H2.66683V4.66671C2.66683 4.4899 2.73707 4.32033 2.86209 4.1953C2.98712 4.07028 3.15669 4.00004 3.3335 4.00004H12.6668C12.8436 4.00004 13.0132 4.07028 13.1382 4.1953C13.2633 4.32033 13.3335 4.4899 13.3335 4.66671V5.33337ZM4.66683 12C4.79868 12 4.92758 11.9609 5.03721 11.8877C5.14684 11.8144 5.23229 11.7103 5.28275 11.5885C5.33321 11.4667 5.34641 11.3326 5.32069 11.2033C5.29496 11.074 5.23147 10.9552 5.13823 10.862C5.045 10.7687 4.92621 10.7052 4.79689 10.6795C4.66757 10.6538 4.53352 10.667 4.41171 10.7175C4.28989 10.7679 4.18577 10.8534 4.11252 10.963C4.03926 11.0726 4.00016 11.2015 4.00016 11.3334C4.00016 11.5102 4.0704 11.6798 4.19543 11.8048C4.32045 11.9298 4.49002 12 4.66683 12Z" fill="#FAFAFA"/>
</svg>
