<svg width="48" height="48" viewBox="0 0 48 48" fill="none" xmlns="http://www.w3.org/2000/svg">
<rect width="48" height="48" rx="10" fill="#EFA930"/>
<path d="M33.9999 28.9201V31.9201C34.0011 32.1986 33.944 32.4743 33.8324 32.7294C33.7209 32.9846 33.5572 33.2137 33.352 33.402C33.1468 33.5902 32.9045 33.7336 32.6407 33.8228C32.3769 33.912 32.0973 33.9452 31.8199 33.9201C28.7428 33.5857 25.7869 32.5342 23.1899 30.8501C20.7738 29.3148 18.7253 27.2663 17.1899 24.8501C15.4999 22.2413 14.4482 19.2711 14.1199 16.1801C14.0949 15.9036 14.1278 15.6249 14.2164 15.3617C14.3051 15.0986 14.4475 14.8568 14.6347 14.6517C14.8219 14.4466 15.0497 14.2828 15.3037 14.1706C15.5577 14.0584 15.8323 14.0004 16.1099 14.0001H19.1099C19.5952 13.9953 20.0657 14.1672 20.4337 14.4836C20.8017 14.8001 21.042 15.2395 21.1099 15.7201C21.2366 16.6802 21.4714 17.6228 21.8099 18.5301C21.9445 18.888 21.9736 19.277 21.8938 19.651C21.8141 20.0249 21.6288 20.3682 21.3599 20.6401L20.0899 21.9101C21.5135 24.4136 23.5864 26.4865 26.0899 27.9101L27.3599 26.6401C27.6318 26.3712 27.9751 26.1859 28.3491 26.1062C28.723 26.0264 29.112 26.0556 29.4699 26.1901C30.3772 26.5286 31.3199 26.7635 32.2799 26.8901C32.7657 26.9586 33.2093 27.2033 33.5265 27.5776C33.8436 27.9519 34.0121 28.4297 33.9999 28.9201Z" stroke="white" stroke-width="2" stroke-linecap="round" stroke-linejoin="round"/>
</svg>
