<svg width="46" height="41" viewBox="0 0 46 41" fill="none" xmlns="http://www.w3.org/2000/svg">
<path d="M40.9794 4.3986C38.5889 2.00191 35.4202 0.539112 32.0455 0.274432C28.6709 0.00975244 25.3128 0.960645 22.5779 2.95535C19.7087 0.821217 16.1374 -0.146499 12.5832 0.247072C9.02901 0.640643 5.75596 2.36627 3.42315 5.07645C1.09034 7.78662 -0.128953 11.28 0.0108141 14.8532C0.150582 18.4264 1.63902 21.8139 4.17641 24.3336L18.1805 38.3602C19.3532 39.5143 20.9326 40.1611 22.5779 40.1611C24.2232 40.1611 25.8026 39.5143 26.9753 38.3602L40.9794 24.3336C43.6124 21.6844 45.0903 18.1011 45.0903 14.3661C45.0903 10.631 43.6124 7.04772 40.9794 4.3986ZM37.7997 21.2215L23.7957 35.2256C23.6363 35.3865 23.4466 35.5143 23.2376 35.6014C23.0286 35.6886 22.8044 35.7335 22.5779 35.7335C22.3514 35.7335 22.1272 35.6886 21.9182 35.6014C21.7092 35.5143 21.5195 35.3865 21.3602 35.2256L7.35608 21.1539C5.58754 19.3461 4.59723 16.9176 4.59723 14.3886C4.59723 11.8596 5.58754 9.43117 7.35608 7.62337C9.15824 5.84408 11.5888 4.84639 14.1213 4.84639C16.6539 4.84639 19.0844 5.84408 20.8866 7.62337C21.0962 7.83474 21.3456 8.0025 21.6205 8.11699C21.8953 8.23148 22.19 8.29042 22.4877 8.29042C22.7854 8.29042 23.0802 8.23148 23.355 8.11699C23.6298 8.0025 23.8792 7.83474 24.0888 7.62337C25.891 5.84408 28.3216 4.84639 30.8541 4.84639C33.3866 4.84639 35.8172 5.84408 37.6193 7.62337C39.4122 9.40748 40.435 11.8228 40.4687 14.3518C40.5024 16.8809 39.5444 19.3226 37.7997 21.1539V21.2215Z" fill="#F9F9FB"/>
</svg>
