<svg width="1114" height="613" viewBox="0 0 1114 613" fill="none" xmlns="http://www.w3.org/2000/svg">
<path d="M2.6477 21.5263C2.12431 20.8842 2.22059 19.9393 2.86273 19.4159L13.3271 10.8868C13.9693 10.3634 14.9142 10.4597 15.4375 11.1018C15.9609 11.744 15.8647 12.6888 15.2225 13.2122L5.92081 20.7937L13.5023 30.0954C14.0257 30.7375 13.9294 31.6824 13.2872 32.2058C12.6451 32.7292 11.7002 32.6329 11.1768 31.9907L2.6477 21.5263ZM1111.1 589.734C1111.69 590.32 1111.69 591.27 1111.1 591.855L1101.56 601.401C1100.97 601.987 1100.02 601.987 1099.43 601.401C1098.85 600.816 1098.85 599.866 1099.43 599.28L1107.92 590.795L1099.43 582.31C1098.85 581.724 1098.85 580.774 1099.43 580.188C1100.02 579.602 1100.97 579.602 1101.56 580.188L1111.1 589.734ZM12.2043 19.9858C13.0272 20.0816 13.6166 20.8263 13.5207 21.6492C13.4249 22.4721 12.6802 23.0615 11.8573 22.9656L12.2043 19.9858ZM27.9119 25.0714C27.0921 24.9515 26.5248 24.1899 26.6446 23.3702C26.7644 22.5505 27.526 21.9831 28.3458 22.1029L27.9119 25.0714ZM44.0429 24.6353C44.8587 24.7795 45.4031 25.5577 45.2589 26.3735C45.1147 27.1893 44.3365 27.7337 43.5207 27.5895L44.0429 24.6353ZM59.5363 30.6841C58.7255 30.5139 58.2063 29.7186 58.3766 28.9079C58.5468 28.0971 59.3421 27.5779 60.1528 27.7482L59.5363 30.6841ZM75.8448 31.3099C76.6495 31.5064 77.1426 32.3182 76.946 33.1229C76.7494 33.9277 75.9377 34.4207 75.1329 34.2242L75.8448 31.3099ZM90.6857 38.3015C89.888 38.0778 89.4227 37.2499 89.6464 36.4522C89.87 35.6546 90.6979 35.1892 91.4956 35.4129L90.6857 38.3015ZM107.03 40.0601C107.82 40.3114 108.256 41.155 108.005 41.9444C107.754 42.7338 106.91 43.1701 106.121 42.9189L107.03 40.0601ZM121.248 48.0267C120.468 47.7479 120.061 46.8895 120.34 46.1094C120.619 45.3293 121.477 44.9229 122.257 45.2017L121.248 48.0267ZM137.484 50.9548C138.254 51.2615 138.629 52.1341 138.322 52.9036C138.016 53.6731 137.143 54.0483 136.374 53.7416L137.484 50.9548ZM151.07 59.9054C150.311 59.5714 149.968 58.686 150.302 57.9279C150.636 57.1698 151.521 56.826 152.279 57.16L151.07 59.9054ZM167.067 63.9976C167.813 64.3588 168.124 65.256 167.763 66.0015C167.402 66.747 166.504 67.0586 165.759 66.6974L167.067 63.9976ZM180.021 73.9216C179.288 73.5343 179.009 72.6266 179.396 71.8943C179.783 71.162 180.691 70.8823 181.423 71.2696L180.021 73.9216ZM195.644 79.1134C196.363 79.5261 196.61 80.4429 196.198 81.1612C195.785 81.8796 194.868 82.1274 194.15 81.7147L195.644 79.1134ZM207.914 89.9358C207.21 89.4992 206.994 88.5745 207.43 87.8705C207.867 87.1665 208.792 86.9497 209.496 87.3864L207.914 89.9358ZM223.12 96.15C223.81 96.6094 223.996 97.5407 223.537 98.23C223.077 98.9195 222.146 99.1059 221.457 98.6466L223.12 96.15ZM234.683 107.761C234.008 107.281 233.85 106.344 234.331 105.67C234.811 104.995 235.748 104.837 236.423 105.318L234.683 107.761ZM249.459 114.894C250.119 115.394 250.249 116.335 249.749 116.995C249.249 117.656 248.308 117.786 247.648 117.286L249.459 114.894ZM260.335 127.171C259.688 126.653 259.584 125.709 260.102 125.063C260.62 124.416 261.564 124.312 262.21 124.83L260.335 127.171ZM274.691 135.095C275.325 135.629 275.405 136.575 274.871 137.209C274.337 137.842 273.39 137.922 272.757 137.388L274.691 135.095ZM284.938 147.912C284.318 147.363 284.259 146.415 284.808 145.794C285.357 145.174 286.305 145.115 286.925 145.664L284.938 147.912ZM298.911 156.49C299.52 157.051 299.558 158 298.997 158.609C298.435 159.218 297.486 159.257 296.877 158.695L298.911 156.49ZM308.614 169.726C308.016 169.154 307.995 168.204 308.568 167.606C309.141 167.007 310.09 166.986 310.688 167.559L308.614 169.726ZM322.257 178.821C322.846 179.404 322.851 180.353 322.269 180.942C321.686 181.531 320.736 181.537 320.147 180.954L322.257 178.821ZM331.52 192.369C330.939 191.778 330.947 190.828 331.538 190.247C332.129 189.667 333.079 189.675 333.66 190.266L331.52 192.369ZM344.903 201.849C345.477 202.447 345.457 203.397 344.86 203.97C344.262 204.544 343.312 204.524 342.739 203.927L344.903 201.849ZM353.837 215.611C353.27 215.007 353.298 214.058 353.902 213.49C354.505 212.922 355.454 212.951 356.022 213.555L353.837 215.611ZM367.04 225.356C367.603 225.963 367.567 226.912 366.959 227.476C366.351 228.039 365.402 228.003 364.839 227.395L367.04 225.356ZM375.759 239.245C375.199 238.634 375.24 237.685 375.851 237.126C376.462 236.566 377.41 236.607 377.97 237.218L375.759 239.245ZM388.861 249.142C389.419 249.754 389.374 250.703 388.762 251.261C388.149 251.818 387.201 251.774 386.643 251.162L388.861 249.142ZM397.479 263.083C396.922 262.469 396.967 261.521 397.581 260.964C398.194 260.407 399.143 260.453 399.7 261.066L397.479 263.083ZM410.562 273.027C411.119 273.64 411.074 274.589 410.461 275.146C409.848 275.703 408.899 275.658 408.342 275.045L410.562 273.027ZM419.185 286.949C418.626 286.338 418.669 285.389 419.281 284.83C419.893 284.272 420.841 284.315 421.4 284.926L419.185 286.949ZM432.327 296.844C432.889 297.453 432.85 298.402 432.24 298.963C431.631 299.525 430.682 299.486 430.121 298.876L432.327 296.844ZM441.056 310.681C440.491 310.075 440.524 309.126 441.13 308.561C441.736 307.996 442.685 308.03 443.25 308.636L441.056 310.681ZM454.314 320.417C454.883 321.019 454.857 321.968 454.256 322.538C453.654 323.107 452.705 323.081 452.135 322.48L454.314 320.417ZM463.255 334.123C462.68 333.526 462.697 332.577 463.294 332.002C463.89 331.427 464.84 331.444 465.415 332.04L463.255 334.123ZM476.68 343.6C477.262 344.19 477.255 345.14 476.665 345.721C476.074 346.303 475.125 346.296 474.543 345.706L476.68 343.6ZM485.93 357.122C485.341 356.54 485.336 355.59 485.919 355.001C486.502 354.412 487.452 354.408 488.041 354.991L485.93 357.122ZM499.568 366.252C500.165 366.827 500.183 367.776 499.608 368.373C499.033 368.969 498.084 368.987 497.487 368.412L499.568 366.252ZM509.207 379.536C508.602 378.97 508.57 378.021 509.136 377.416C509.701 376.811 510.651 376.779 511.256 377.344L509.207 379.536ZM523.092 388.23C523.706 388.786 523.754 389.734 523.198 390.349C522.642 390.963 521.694 391.011 521.079 390.455L523.092 388.23ZM533.194 401.224C532.57 400.679 532.506 399.732 533.051 399.108C533.596 398.484 534.543 398.42 535.167 398.964L533.194 401.224ZM547.34 409.399C547.974 409.933 548.056 410.879 547.523 411.513C546.989 412.147 546.043 412.228 545.409 411.695L547.34 409.399ZM557.931 422.022C557.287 421.501 557.187 420.557 557.708 419.912C558.228 419.268 559.173 419.168 559.817 419.689L557.931 422.022ZM572.38 429.635C573.035 430.142 573.154 431.085 572.647 431.739C572.139 432.394 571.197 432.513 570.542 432.006L572.38 429.635ZM583.439 441.788C582.774 441.294 582.635 440.355 583.128 439.69C583.622 439.024 584.561 438.885 585.227 439.379L583.439 441.788ZM598.257 448.827C598.933 449.306 599.093 450.242 598.614 450.918C598.135 451.594 597.198 451.754 596.522 451.275L598.257 448.827ZM609.777 460.447C609.09 459.983 608.91 459.051 609.373 458.364C609.837 457.678 610.77 457.497 611.456 457.961L609.777 460.447ZM625 466.887C625.697 467.335 625.898 468.263 625.451 468.96C625.003 469.657 624.075 469.859 623.378 469.411L625 466.887ZM636.95 477.916C636.243 477.484 636.02 476.561 636.452 475.854C636.884 475.147 637.807 474.924 638.514 475.356L636.95 477.916ZM652.399 483.616C653.116 484.031 653.361 484.949 652.945 485.666C652.53 486.382 651.612 486.627 650.896 486.212L652.399 483.616ZM664.958 494.138C664.232 493.739 663.966 492.828 664.364 492.101C664.762 491.375 665.674 491.109 666.4 491.507L664.958 494.138ZM680.548 499.051C681.283 499.432 681.57 500.337 681.189 501.073C680.808 501.808 679.903 502.095 679.167 501.714L680.548 499.051ZM693.765 509.063C693.021 508.7 692.713 507.801 693.076 507.057C693.44 506.313 694.338 506.004 695.083 506.368L693.765 509.063ZM709.451 513.187C710.204 513.534 710.533 514.425 710.186 515.177C709.839 515.93 708.949 516.259 708.196 515.912L709.451 513.187ZM722.974 522.515C722.214 522.186 721.865 521.303 722.194 520.542C722.523 519.782 723.406 519.433 724.167 519.762L722.974 522.515ZM739.115 526.035C739.883 526.347 740.252 527.222 739.94 527.989C739.628 528.757 738.754 529.126 737.986 528.814L739.115 526.035ZM752.853 534.665C752.079 534.37 751.69 533.503 751.985 532.729C752.28 531.955 753.147 531.566 753.921 531.861L752.853 534.665ZM769.108 537.456C769.889 537.733 770.296 538.591 770.018 539.372C769.74 540.152 768.882 540.56 768.102 540.282L769.108 537.456ZM783.427 545.552C782.641 545.291 782.215 544.442 782.476 543.656C782.737 542.87 783.586 542.444 784.372 542.705L783.427 545.552ZM799.542 547.568C800.334 547.813 800.777 548.653 800.532 549.444C800.287 550.236 799.447 550.679 798.656 550.434L799.542 547.568ZM814.258 555.084C813.461 554.855 813.001 554.024 813.229 553.228C813.458 552.432 814.289 551.972 815.085 552.2L814.258 555.084ZM830.643 556.497C831.443 556.71 831.92 557.531 831.707 558.332C831.495 559.132 830.673 559.609 829.873 559.396L830.643 556.497ZM845.343 563.347C844.538 563.15 844.046 562.338 844.243 561.533C844.441 560.729 845.253 560.236 846.058 560.434L845.343 563.347ZM861.83 564.146C862.638 564.328 863.146 565.131 862.963 565.939C862.781 566.747 861.978 567.255 861.17 567.072L861.83 564.146ZM877.106 570.513C876.295 570.346 875.773 569.552 875.941 568.741C876.108 567.929 876.902 567.408 877.713 567.575L877.106 570.513ZM893.254 570.643C894.068 570.796 894.603 571.58 894.45 572.395C894.296 573.209 893.512 573.744 892.698 573.591L893.254 570.643ZM908.626 576.453C907.81 576.313 907.261 575.538 907.4 574.721C907.54 573.905 908.315 573.356 909.132 573.496L908.626 576.453ZM925.354 576.129C926.173 576.255 926.734 577.021 926.608 577.839C926.482 578.658 925.716 579.22 924.898 579.094L925.354 576.129ZM940.573 581.38C939.752 581.266 939.179 580.509 939.292 579.689C939.405 578.868 940.162 578.295 940.983 578.408L940.573 581.38ZM956.852 580.473C957.675 580.574 958.26 581.322 958.159 582.144C958.058 582.967 957.31 583.552 956.488 583.451L956.852 580.473ZM972.722 585.315C971.898 585.227 971.302 584.487 971.39 583.664C971.479 582.84 972.218 582.244 973.042 582.332L972.722 585.315ZM989.171 583.945C989.996 584.022 990.602 584.752 990.526 585.577C990.449 586.402 989.719 587.009 988.894 586.932L989.171 583.945ZM1004.7 588.29C1003.87 588.225 1003.25 587.503 1003.32 586.677C1003.39 585.851 1004.11 585.234 1004.93 585.3L1004.7 588.29ZM1020.99 586.463C1021.82 586.517 1022.44 587.232 1022.39 588.058C1022.33 588.885 1021.62 589.511 1020.79 589.457L1020.99 586.463ZM1037.19 590.427C1036.36 590.384 1035.73 589.678 1035.77 588.85C1035.81 588.023 1036.52 587.388 1037.35 587.431L1037.19 590.427ZM1053.39 588.177C1054.22 588.21 1054.86 588.908 1054.83 589.736C1054.79 590.564 1054.1 591.208 1053.27 591.174L1053.39 588.177ZM1069.15 591.72C1068.32 591.697 1067.67 591.006 1067.69 590.178C1067.71 589.35 1068.4 588.698 1069.23 588.722L1069.15 591.72ZM1085.35 589.087C1086.18 589.101 1086.84 589.784 1086.82 590.613C1086.81 591.441 1086.13 592.101 1085.3 592.087L1085.35 589.087ZM1101.72 592.272C1100.89 592.267 1100.23 591.592 1100.23 590.763C1100.24 589.935 1100.91 589.267 1101.74 589.272L1101.72 592.272ZM3.96247 19.0864C6.72905 19.3683 9.47622 19.6681 12.2043 19.9858L11.8573 22.9656C9.14363 22.6497 6.41074 22.3514 3.65837 22.0709L3.96247 19.0864ZM28.3458 22.1029C33.6514 22.8784 38.883 23.7232 44.0429 24.6353L43.5207 27.5895C38.3904 26.6826 33.1883 25.8426 27.9119 25.0714L28.3458 22.1029ZM60.1528 27.7482C65.4601 28.8627 70.6898 30.0507 75.8448 31.3099L75.1329 34.2242C70.0098 32.9728 64.8119 31.792 59.5363 30.6841L60.1528 27.7482ZM91.4956 35.4129C96.7521 36.8867 101.929 38.4367 107.03 40.0601L106.121 42.9189C101.053 41.3059 95.9088 39.766 90.6857 38.3015L91.4956 35.4129ZM122.257 45.2017C127.411 47.0435 132.485 48.9622 137.484 50.9548L136.374 53.7416C131.408 51.7622 126.367 49.8563 121.248 48.0267L122.257 45.2017ZM152.279 57.16C157.283 59.3647 162.211 61.6449 167.067 63.9976L165.759 66.6974C160.935 64.3603 156.04 62.0953 151.07 59.9054L152.279 57.16ZM181.423 71.2696C186.233 73.8134 190.972 76.4291 195.644 79.1134L194.15 81.7147C189.507 79.0475 184.799 76.4487 180.021 73.9216L181.423 71.2696ZM209.496 87.3864C214.099 90.2418 218.639 93.1642 223.12 96.15L221.457 98.6466C217.002 95.6784 212.49 92.7736 207.914 89.9358L209.496 87.3864ZM236.423 105.318C240.822 108.45 245.166 111.643 249.459 114.894L247.648 117.286C243.377 114.052 239.057 110.876 234.683 107.761L236.423 105.318ZM262.21 124.83C266.415 128.199 270.574 131.622 274.691 135.095L272.757 137.388C268.658 133.93 264.519 130.524 260.335 127.171L262.21 124.83ZM286.925 145.664C290.956 149.227 294.949 152.837 298.911 156.49L296.877 158.695C292.93 155.056 288.952 151.46 284.938 147.912L286.925 145.664ZM310.688 167.559C314.571 171.275 318.425 175.031 322.257 178.821L320.147 180.954C316.326 177.174 312.483 173.43 308.614 169.726L310.688 167.559ZM333.66 190.266C337.424 194.097 341.17 197.959 344.903 201.849L342.739 203.927C339.013 200.044 335.275 196.19 331.52 192.369L333.66 190.266ZM356.022 213.555C359.702 217.465 363.373 221.4 367.04 225.356L364.839 227.395C361.177 223.444 357.511 219.515 353.837 215.611L356.022 213.555ZM377.97 237.218C381.599 241.176 385.228 245.152 388.861 249.142L386.643 251.162C383.012 247.173 379.385 243.2 375.759 239.245L377.97 237.218ZM399.7 261.066C403.311 265.043 406.93 269.031 410.562 273.027L408.342 275.045C404.709 271.048 401.089 267.059 397.479 263.083L399.7 261.066ZM421.4 284.926C425.025 288.895 428.666 292.869 432.327 296.844L430.121 298.876C426.456 294.898 422.812 290.921 419.185 286.949L421.4 284.926ZM443.25 308.636C446.913 312.566 450.6 316.494 454.314 320.417L452.135 322.48C448.415 318.55 444.724 314.616 441.056 310.681L443.25 308.636ZM465.415 332.04C469.138 335.902 472.892 339.756 476.68 343.6L474.543 345.706C470.747 341.853 466.986 337.991 463.255 334.123L465.415 332.04ZM488.041 354.991C491.845 358.758 495.687 362.513 499.568 366.252L497.487 368.412C493.595 364.663 489.744 360.899 485.93 357.122L488.041 354.991ZM511.256 377.344C515.158 380.991 519.102 384.621 523.092 388.23L521.079 390.455C517.077 386.834 513.121 383.194 509.207 379.536L511.256 377.344ZM535.167 398.964C539.177 402.465 543.233 405.944 547.34 409.399L545.409 411.695C541.287 408.228 537.217 404.737 533.194 401.224L535.167 398.964ZM559.817 419.689C563.952 423.031 568.139 426.347 572.38 429.635L570.542 432.006C566.284 428.705 562.082 425.376 557.931 422.022L559.817 419.689ZM585.227 439.379C589.513 442.558 593.855 445.709 598.257 448.827L596.522 451.275C592.103 448.143 587.743 444.98 583.439 441.788L585.227 439.379ZM611.456 457.961C615.91 460.97 620.423 463.946 625 466.887L623.378 469.411C618.782 466.457 614.249 463.469 609.777 460.447L611.456 457.961ZM638.514 475.356C643.079 478.145 647.707 480.899 652.399 483.616L650.896 486.212C646.183 483.483 641.535 480.717 636.95 477.916L638.514 475.356ZM666.4 491.507C671.053 494.058 675.768 496.573 680.548 499.051L679.167 501.714C674.367 499.226 669.631 496.7 664.958 494.138L666.4 491.507ZM695.083 506.368C699.809 508.678 704.598 510.952 709.451 513.187L708.196 515.912C703.322 513.667 698.513 511.383 693.765 509.063L695.083 506.368ZM724.167 519.762C729.084 521.892 734.067 523.984 739.115 526.035L737.986 528.814C732.916 526.754 727.913 524.654 722.974 522.515L724.167 519.762ZM753.921 531.861C758.919 533.765 763.981 535.63 769.108 537.456L768.102 540.282C762.954 538.449 757.872 536.576 752.853 534.665L753.921 531.861ZM784.372 542.705C789.368 544.364 794.424 545.985 799.542 547.568L798.656 550.434C793.518 548.845 788.442 547.218 783.427 545.552L784.372 542.705ZM815.085 552.2C820.21 553.671 825.395 555.103 830.643 556.497L829.873 559.396C824.606 557.998 819.401 556.56 814.258 555.084L815.085 552.2ZM846.058 560.434C851.255 561.709 856.512 562.947 861.83 564.146L861.17 567.072C855.834 565.869 850.559 564.627 845.343 563.347L846.058 560.434ZM877.713 567.575C882.838 568.633 888.017 569.656 893.254 570.643L892.698 573.591C887.445 572.601 882.248 571.574 877.106 570.513L877.713 567.575ZM909.132 573.496C914.481 574.41 919.888 575.288 925.354 576.129L924.898 579.094C919.416 578.251 913.993 577.37 908.626 576.453L909.132 573.496ZM940.983 578.408C946.22 579.13 951.51 579.819 956.852 580.473L956.488 583.451C951.13 582.795 945.825 582.104 940.573 581.38L940.983 578.408ZM973.042 582.332C978.366 582.904 983.742 583.441 989.171 583.945L988.894 586.932C983.451 586.427 978.061 585.888 972.722 585.315L973.042 582.332ZM1004.93 585.3C1010.24 585.72 1015.59 586.108 1020.99 586.463L1020.79 589.457C1015.38 589.1 1010.01 588.711 1004.7 588.29L1004.93 585.3ZM1037.35 587.431C1042.65 587.711 1047.99 587.959 1053.39 588.177L1053.27 591.174C1047.86 590.956 1042.5 590.707 1037.19 590.427L1037.35 587.431ZM1069.23 588.722C1074.56 588.873 1079.93 588.996 1085.35 589.087L1085.3 592.087C1079.87 591.995 1074.48 591.873 1069.15 591.72L1069.23 588.722ZM1101.74 589.272C1104.5 589.287 1107.26 589.295 1110.04 589.295L1110.04 592.295C1107.26 592.295 1104.48 592.287 1101.72 592.272L1101.74 589.272ZM1.48499 22.474C0.438213 21.1897 0.630758 19.3 1.91506 18.2532L22.8439 1.19495C24.1282 0.148165 26.0179 0.340719 27.0647 1.62501C28.1114 2.90931 27.9189 4.79902 26.6346 5.8458L8.0312 21.0087L23.1941 39.6121C24.2409 40.8964 24.0483 42.7861 22.764 43.8329C21.4798 44.8797 19.59 44.6871 18.5433 43.4028L1.48499 22.474ZM1112.16 588.673C1113.33 589.845 1113.33 591.745 1112.16 592.916L1093.07 612.008C1091.9 613.18 1090 613.18 1088.83 612.008C1087.66 610.836 1087.66 608.937 1088.83 607.765L1105.8 590.795L1088.83 573.824C1087.66 572.653 1087.66 570.753 1088.83 569.582C1090 568.41 1091.9 568.41 1093.07 569.582L1112.16 588.673ZM12.3778 18.4958C14.0235 18.6875 15.2023 20.1769 15.0107 21.8227C14.8191 23.4684 13.3296 24.6472 11.6839 24.4556L12.3778 18.4958ZM27.6949 26.5556C26.0555 26.3159 24.9207 24.7927 25.1604 23.1532C25.4 21.5138 26.9233 20.379 28.5627 20.6187L27.6949 26.5556ZM44.304 23.1582C45.9356 23.4466 47.0244 25.003 46.736 26.6346C46.4476 28.2662 44.8911 29.355 43.2596 29.0666L44.304 23.1582ZM59.228 32.1521C57.6065 31.8116 56.5681 30.2211 56.9086 28.5996C57.2491 26.9781 58.8396 25.9397 60.4611 26.2802L59.228 32.1521ZM76.2007 29.8527C77.8102 30.2459 78.7963 31.8693 78.4032 33.4789C78.01 35.0884 76.3865 36.0745 74.777 35.6813L76.2007 29.8527ZM90.2807 39.7458C88.6854 39.2985 87.7547 37.6426 88.2021 36.0473C88.6494 34.4519 90.3053 33.5213 91.9006 33.9686L90.2807 39.7458ZM107.485 38.6308C109.064 39.1333 109.937 40.8205 109.434 42.3993C108.932 43.9781 107.244 44.8507 105.666 44.3482L107.485 38.6308ZM120.743 49.4392C119.183 48.8816 118.37 47.1648 118.928 45.6046C119.485 44.0444 121.202 43.2316 122.762 43.7892L120.743 49.4392ZM138.04 49.5614C139.579 50.1749 140.329 51.9199 139.716 53.459C139.102 54.9981 137.357 55.7485 135.818 55.135L138.04 49.5614ZM150.465 61.2781C148.949 60.61 148.261 58.8394 148.929 57.3231C149.597 55.8069 151.368 55.1193 152.884 55.7874L150.465 61.2781ZM167.721 62.6477C169.212 63.3701 169.835 65.1644 169.113 66.6555C168.39 68.1466 166.596 68.7697 165.105 68.0473L167.721 62.6477ZM179.319 75.2475C177.855 74.4729 177.295 72.6577 178.07 71.193C178.845 69.7284 180.66 69.169 182.124 69.9437L179.319 75.2475ZM196.391 77.8128C197.828 78.6381 198.324 80.4718 197.498 81.9084C196.673 83.3451 194.839 83.8407 193.403 83.0154L196.391 77.8128ZM207.124 91.2105C205.716 90.3372 205.282 88.4878 206.156 87.0798C207.029 85.6718 208.878 85.2384 210.286 86.1117L207.124 91.2105ZM223.952 94.9018C225.331 95.8205 225.704 97.683 224.785 99.0618C223.866 100.441 222.004 100.814 220.625 99.8948L223.952 94.9018ZM233.813 108.983C232.463 108.022 232.148 106.149 233.109 104.8C234.07 103.45 235.943 103.135 237.293 104.096L233.813 108.983ZM250.364 113.698C251.685 114.698 251.945 116.58 250.945 117.901C249.945 119.222 248.063 119.482 246.742 118.482L250.364 113.698ZM259.397 128.342C258.104 127.306 257.895 125.418 258.931 124.125C259.967 122.832 261.855 122.623 263.148 123.659L259.397 128.342ZM275.659 133.948C276.925 135.017 277.086 136.909 276.017 138.176C274.949 139.442 273.056 139.603 271.79 138.534L275.659 133.948ZM283.945 149.036C282.703 147.938 282.587 146.042 283.684 144.801C284.782 143.56 286.677 143.443 287.919 144.54L283.945 149.036ZM299.927 155.387C301.145 156.51 301.222 158.408 300.099 159.626C298.976 160.844 297.078 160.921 295.86 159.798L299.927 155.387ZM307.577 170.81C306.38 169.664 306.338 167.765 307.484 166.568C308.63 165.371 310.529 165.33 311.726 166.476L307.577 170.81ZM323.312 177.755C324.49 178.92 324.5 180.819 323.335 181.997C322.17 183.175 320.27 183.185 319.092 182.02L323.312 177.755ZM330.45 193.42C329.289 192.238 329.305 190.339 330.487 189.177C331.669 188.016 333.568 188.033 334.729 189.214L330.45 193.42ZM345.986 200.811C347.133 202.006 347.094 203.906 345.898 205.053C344.703 206.2 342.804 206.161 341.656 204.965L345.986 200.811ZM352.745 216.638C351.609 215.432 351.667 213.533 352.874 212.398C354.08 211.262 355.979 211.32 357.114 212.527L352.745 216.638ZM368.14 224.336C369.266 225.551 369.194 227.449 367.979 228.576C366.764 229.702 364.865 229.63 363.739 228.415L368.14 224.336ZM374.653 240.259C373.534 239.037 373.616 237.14 374.837 236.02C376.058 234.9 377.956 234.983 379.076 236.204L374.653 240.259ZM389.97 248.132C391.086 249.357 390.997 251.254 389.772 252.37C388.547 253.485 386.649 253.396 385.534 252.171L389.97 248.132ZM396.368 264.091C395.254 262.864 395.346 260.967 396.573 259.853C397.799 258.74 399.696 258.831 400.81 260.058L396.368 264.091ZM411.672 272.018C412.786 273.244 412.696 275.141 411.47 276.256C410.244 277.37 408.346 277.28 407.232 276.054L411.672 272.018ZM418.077 287.961C416.96 286.737 417.046 284.84 418.269 283.723C419.493 282.605 421.39 282.691 422.508 283.915L418.077 287.961ZM433.431 295.828C434.553 297.046 434.475 298.944 433.257 300.067C432.038 301.189 430.14 301.111 429.017 299.893L433.431 295.828ZM439.959 311.704C438.829 310.492 438.896 308.594 440.108 307.464C441.32 306.334 443.218 306.401 444.348 307.613L439.959 311.704ZM455.403 319.386C456.542 320.59 456.49 322.488 455.287 323.627C454.083 324.766 452.185 324.714 451.046 323.511L455.403 319.386ZM462.175 335.164C461.025 333.971 461.06 332.072 462.253 330.922C463.445 329.772 465.345 329.806 466.495 330.999L462.175 335.164ZM477.749 342.547C478.911 343.727 478.897 345.627 477.717 346.79C476.537 347.953 474.638 347.939 473.475 346.759L477.749 342.547ZM484.874 358.188C483.697 357.023 483.688 355.123 484.853 353.946C486.019 352.768 487.919 352.759 489.096 353.925L484.874 358.188ZM500.609 365.172C501.802 366.321 501.838 368.22 500.688 369.413C499.539 370.607 497.64 370.642 496.447 369.493L500.609 365.172ZM508.183 380.632C506.973 379.5 506.908 377.602 508.04 376.392C509.171 375.181 511.07 375.117 512.28 376.248L508.183 380.632ZM524.098 387.118C525.327 388.229 525.422 390.126 524.311 391.355C523.199 392.584 521.302 392.679 520.073 391.567L524.098 387.118ZM532.207 402.354C530.959 401.264 530.831 399.369 531.921 398.121C533.011 396.873 534.906 396.745 536.154 397.835L532.207 402.354ZM548.306 408.251C549.574 409.318 549.737 411.21 548.671 412.478C547.604 413.746 545.712 413.91 544.444 412.843L548.306 408.251ZM556.988 423.189C555.7 422.147 555.5 420.258 556.541 418.97C557.582 417.681 559.471 417.481 560.76 418.522L556.988 423.189ZM573.299 428.449C574.609 429.464 574.847 431.349 573.832 432.658C572.817 433.968 570.933 434.206 569.623 433.191L573.299 428.449ZM582.546 442.993C581.215 442.005 580.936 440.127 581.924 438.796C582.911 437.465 584.79 437.187 586.12 438.174L582.546 442.993ZM599.124 447.603C600.476 448.561 600.795 450.434 599.838 451.786C598.88 453.137 597.007 453.457 595.655 452.499L599.124 447.603ZM608.937 461.69C607.564 460.762 607.203 458.898 608.13 457.525C609.058 456.152 610.923 455.791 612.296 456.718L608.937 461.69ZM625.811 465.625C627.204 466.521 627.608 468.377 626.712 469.771C625.817 471.165 623.961 471.569 622.567 470.673L625.811 465.625ZM636.168 479.196C634.754 478.332 634.308 476.486 635.172 475.072C636.035 473.658 637.882 473.212 639.296 474.076L636.168 479.196ZM653.151 482.318C654.585 483.148 655.074 484.983 654.243 486.417C653.413 487.851 651.578 488.34 650.144 487.51L653.151 482.318ZM664.237 495.453C662.784 494.656 662.252 492.833 663.049 491.38C663.845 489.927 665.669 489.395 667.122 490.192L664.237 495.453ZM681.238 497.719C682.709 498.481 683.283 500.292 682.521 501.763C681.758 503.234 679.948 503.808 678.477 503.046L681.238 497.719ZM693.107 510.411C691.618 509.683 691.001 507.887 691.729 506.398C692.456 504.91 694.253 504.293 695.741 505.02L693.107 510.411ZM710.079 511.825C711.584 512.518 712.242 514.3 711.548 515.805C710.855 517.31 709.073 517.968 707.568 517.275L710.079 511.825ZM722.378 523.891C720.858 523.233 720.159 521.467 720.818 519.946C721.476 518.426 723.242 517.727 724.763 518.386L722.378 523.891ZM739.68 524.645C741.215 525.269 741.954 527.019 741.33 528.554C740.706 530.089 738.956 530.828 737.421 530.204L739.68 524.645ZM752.319 536.067C750.771 535.477 749.994 533.743 750.583 532.195C751.173 530.647 752.906 529.87 754.455 530.459L752.319 536.067ZM769.611 536.042C771.172 536.598 771.987 538.314 771.431 539.875C770.876 541.436 769.16 542.251 767.599 541.695L769.611 536.042ZM782.954 546.976C781.382 546.454 780.53 544.756 781.052 543.183C781.575 541.611 783.273 540.76 784.845 541.282L782.954 546.976ZM799.985 546.135C801.568 546.624 802.455 548.305 801.965 549.887C801.476 551.47 799.796 552.357 798.213 551.867L799.985 546.135ZM813.844 556.525C812.251 556.068 811.331 554.407 811.788 552.814C812.245 551.222 813.906 550.301 815.499 550.758L813.844 556.525ZM831.028 555.047C832.629 555.472 833.582 557.115 833.157 558.717C832.732 560.318 831.089 561.271 829.488 560.846L831.028 555.047ZM844.985 564.804C843.376 564.409 842.392 562.785 842.787 561.176C843.181 559.567 844.806 558.582 846.415 558.977L844.985 564.804ZM862.16 562.683C863.776 563.047 864.791 564.653 864.427 566.269C864.062 567.885 862.456 568.9 860.84 568.536L862.16 562.683ZM876.803 571.982C875.181 571.647 874.137 570.06 874.472 568.438C874.806 566.815 876.393 565.771 878.016 566.106L876.803 571.982ZM893.531 569.169C895.16 569.476 896.231 571.044 895.924 572.672C895.617 574.301 894.048 575.372 892.42 575.065L893.531 569.169ZM908.373 577.931C906.74 577.652 905.643 576.102 905.922 574.469C906.201 572.835 907.751 571.738 909.385 572.017L908.373 577.931ZM925.582 574.646C927.219 574.898 928.343 576.43 928.091 578.067C927.839 579.705 926.307 580.828 924.67 580.577L925.582 574.646ZM940.368 582.865C938.726 582.639 937.579 581.125 937.806 579.484C938.032 577.842 939.546 576.695 941.188 576.922L940.368 582.865ZM957.035 578.984C958.679 579.186 959.849 580.682 959.648 582.327C959.446 583.971 957.95 585.141 956.306 584.94L957.035 578.984ZM972.562 586.807C970.914 586.63 969.722 585.151 969.899 583.504C970.076 581.856 971.554 580.664 973.202 580.841L972.562 586.807ZM989.31 582.452C990.959 582.605 992.173 584.066 992.019 585.716C991.866 587.366 990.405 588.579 988.755 588.426L989.31 582.452ZM1004.58 589.786C1002.93 589.655 1001.69 588.21 1001.82 586.558C1001.96 584.907 1003.4 583.674 1005.05 583.805L1004.58 589.786ZM1021.09 584.966C1022.74 585.075 1023.99 586.504 1023.89 588.157C1023.78 589.81 1022.35 591.062 1020.7 590.953L1021.09 584.966ZM1037.11 591.925C1035.45 591.838 1034.18 590.426 1034.27 588.771C1034.36 587.117 1035.77 585.846 1037.43 585.933L1037.11 591.925ZM1053.45 586.678C1055.1 586.745 1056.39 588.141 1056.33 589.796C1056.26 591.452 1054.86 592.74 1053.21 592.673L1053.45 586.678ZM1069.1 593.22C1067.45 593.172 1066.14 591.792 1066.19 590.135C1066.24 588.479 1067.62 587.175 1069.28 587.222L1069.1 593.22ZM1085.37 587.588C1087.03 587.616 1088.35 588.981 1088.32 590.638C1088.29 592.295 1086.93 593.615 1085.27 593.587L1085.37 587.588ZM1101.71 593.772C1100.06 593.762 1098.72 592.412 1098.73 590.755C1098.74 589.098 1100.09 587.762 1101.75 587.772L1101.71 593.772ZM4.11452 17.5941C6.8882 17.8767 9.64252 18.1774 12.3778 18.4958L11.6839 24.4556C8.97732 24.1405 6.25158 23.8429 3.50632 23.5632L4.11452 17.5941ZM28.5627 20.6187C33.883 21.3963 39.1293 22.2434 44.304 23.1582L43.2596 29.0666C38.1441 28.1623 32.9567 27.3247 27.6949 26.5556L28.5627 20.6187ZM60.4611 26.2802C65.7843 27.3981 71.0299 28.5896 76.2007 29.8527L74.777 35.6813C69.6698 34.4338 64.4878 33.2567 59.228 32.1521L60.4611 26.2802ZM91.9006 33.9686C97.1738 35.4471 102.368 37.002 107.485 38.6308L105.666 44.3482C100.614 42.7406 95.4871 41.2056 90.2807 39.7458L91.9006 33.9686ZM122.762 43.7892C127.933 45.6371 133.024 47.5621 138.04 49.5614L135.818 55.135C130.869 53.1623 125.845 51.2627 120.743 49.4392L122.762 43.7892ZM152.884 55.7874C157.905 57.9994 162.849 60.2872 167.721 62.6477L165.105 68.0473C160.297 65.7181 155.419 63.4606 150.465 61.2781L152.884 55.7874ZM182.124 69.9437C186.95 72.4957 191.704 75.1199 196.391 77.8128L193.403 83.0154C188.775 80.3567 184.082 77.7663 179.319 75.2475L182.124 69.9437ZM210.286 86.1117C214.904 88.9759 219.458 91.9071 223.952 94.9018L220.625 99.8948C216.184 96.9354 211.685 94.0396 207.124 91.2105L210.286 86.1117ZM237.293 104.096C241.704 107.237 246.06 110.439 250.364 113.698L246.742 118.482C242.483 115.257 238.175 112.09 233.813 108.983L237.293 104.096ZM263.148 123.659C267.364 127.036 271.532 130.467 275.659 133.948L271.79 138.534C267.701 135.085 263.571 131.686 259.397 128.342L263.148 123.659ZM287.919 144.54C291.957 148.111 295.959 151.728 299.927 155.387L295.86 159.798C291.921 156.165 287.95 152.577 283.945 149.036L287.919 144.54ZM311.726 166.476C315.614 170.198 319.475 173.959 323.312 177.755L319.092 182.02C315.277 178.246 311.44 174.508 307.577 170.81L311.726 166.476ZM334.729 189.214C338.498 193.05 342.249 196.917 345.986 200.811L341.656 204.965C337.935 201.086 334.201 197.237 330.45 193.42L334.729 189.214ZM357.114 212.527C360.797 216.44 364.471 220.378 368.14 224.336L363.739 228.415C360.079 224.466 356.416 220.54 352.745 216.638L357.114 212.527ZM379.076 236.204C382.706 240.164 386.337 244.141 389.97 248.132L385.534 252.171C381.903 248.184 378.278 244.212 374.653 240.259L379.076 236.204ZM400.81 260.058C404.422 264.035 408.041 268.023 411.672 272.018L407.232 276.054C403.599 272.057 399.979 268.067 396.368 264.091L400.81 260.058ZM422.508 283.915C426.132 287.883 429.771 291.855 433.431 295.828L429.017 299.893C425.351 295.912 421.706 291.934 418.077 287.961L422.508 283.915ZM444.348 307.613C448.008 311.54 451.692 315.466 455.403 319.386L451.046 323.511C447.323 319.578 443.629 315.641 439.959 311.704L444.348 307.613ZM466.495 330.999C470.215 334.857 473.965 338.707 477.749 342.547L473.475 346.759C469.675 342.902 465.909 339.036 462.175 335.164L466.495 330.999ZM489.096 353.925C492.896 357.688 496.733 361.437 500.609 365.172L496.447 369.493C492.549 365.738 488.693 361.969 484.874 358.188L489.096 353.925ZM512.28 376.248C516.176 379.89 520.114 383.514 524.098 387.118L520.073 391.567C516.064 387.941 512.102 384.295 508.183 380.632L512.28 376.248ZM536.154 397.835C540.156 401.33 544.206 404.803 548.306 408.251L544.444 412.843C540.315 409.37 536.237 405.873 532.207 402.354L536.154 397.835ZM560.76 418.522C564.887 421.858 569.066 425.168 573.299 428.449L569.623 433.191C565.357 429.884 561.146 426.549 556.988 423.189L560.76 418.522ZM586.12 438.174C590.398 441.347 594.732 444.491 599.124 447.603L595.655 452.499C591.227 449.361 586.858 446.191 582.546 442.993L586.12 438.174ZM612.296 456.718C616.74 459.721 621.244 462.69 625.811 465.625L622.567 470.673C617.961 467.713 613.418 464.718 608.937 461.69L612.296 456.718ZM639.296 474.076C643.851 476.858 648.469 479.606 653.151 482.318L650.144 487.51C645.421 484.775 640.763 482.003 636.168 479.196L639.296 474.076ZM667.122 490.192C671.764 492.737 676.469 495.247 681.238 497.719L678.477 503.046C673.666 500.552 668.92 498.021 664.237 495.453L667.122 490.192ZM695.741 505.02C700.458 507.325 705.236 509.594 710.079 511.825L707.568 517.275C702.684 515.025 697.864 512.736 693.107 510.411L695.741 505.02ZM724.763 518.386C729.67 520.511 734.642 522.598 739.68 524.645L737.421 530.204C732.341 528.14 727.327 526.035 722.378 523.891L724.763 518.386ZM754.455 530.459C759.443 532.359 764.494 534.221 769.611 536.042L767.599 541.695C762.441 539.859 757.348 537.982 752.319 536.067L754.455 530.459ZM784.845 541.282C789.831 542.937 794.877 544.555 799.985 546.135L798.213 551.867C793.065 550.275 787.979 548.644 782.954 546.976L784.845 541.282ZM815.499 550.758C820.614 552.226 825.79 553.656 831.028 555.047L829.488 560.846C824.211 559.445 818.997 558.004 813.844 556.525L815.499 550.758ZM846.415 558.977C851.603 560.25 856.851 561.485 862.16 562.683L860.84 568.536C855.495 567.33 850.21 566.086 844.985 564.804L846.415 558.977ZM878.016 566.106C883.132 567.162 888.304 568.183 893.531 569.169L892.42 575.065C887.159 574.073 881.953 573.045 876.803 571.982L878.016 566.106ZM909.385 572.017C914.726 572.93 920.125 573.807 925.582 574.646L924.67 580.577C919.18 579.732 913.748 578.85 908.373 577.931L909.385 572.017ZM941.188 576.922C946.417 577.643 951.699 578.331 957.035 578.984L956.306 584.94C950.94 584.283 945.628 583.591 940.368 582.865L941.188 576.922ZM973.202 580.841C978.519 581.411 983.888 581.949 989.31 582.452L988.755 588.426C983.305 587.92 977.908 587.38 972.562 586.807L973.202 580.841ZM1005.05 583.805C1010.35 584.224 1015.69 584.611 1021.09 584.966L1020.7 590.953C1015.27 590.597 1009.9 590.207 1004.58 589.786L1005.05 583.805ZM1037.43 585.933C1042.72 586.212 1048.06 586.461 1053.45 586.678L1053.21 592.673C1047.79 592.455 1042.43 592.205 1037.11 591.925L1037.43 585.933ZM1069.28 587.222C1074.6 587.374 1079.96 587.496 1085.37 587.588L1085.27 593.587C1079.84 593.495 1074.45 593.372 1069.1 593.22L1069.28 587.222ZM1101.75 587.772C1104.5 587.787 1107.27 587.795 1110.04 587.795L1110.04 593.795C1107.25 593.795 1104.48 593.787 1101.71 593.772L1101.75 587.772Z" fill="#FAFAFA"/>
</svg>
