<svg width="40" height="40" viewBox="0 0 40 40" fill="none" xmlns="http://www.w3.org/2000/svg">
<path d="M25 19H17.41L20.71 15.71C20.8983 15.5217 21.0041 15.2663 21.0041 15C21.0041 14.7337 20.8983 14.4783 20.71 14.29C20.5217 14.1017 20.2663 13.9959 20 13.9959C19.7337 13.9959 19.4783 14.1017 19.29 14.29L14.29 19.29C14.199 19.3851 14.1276 19.4973 14.08 19.62C13.98 19.8635 13.98 20.1365 14.08 20.38C14.1276 20.5028 14.199 20.6149 14.29 20.71L19.29 25.71C19.383 25.8037 19.4936 25.8781 19.6154 25.9289C19.7373 25.9797 19.868 26.0058 20 26.0058C20.132 26.0058 20.2627 25.9797 20.3846 25.9289C20.5065 25.8781 20.6171 25.8037 20.71 25.71C20.8037 25.617 20.8781 25.5064 20.9289 25.3846C20.9797 25.2627 21.0058 25.132 21.0058 25C21.0058 24.868 20.9797 24.7373 20.9289 24.6154C20.8781 24.4936 20.8037 24.383 20.71 24.29L17.41 21H25C25.2652 21 25.5196 20.8946 25.7071 20.7071C25.8947 20.5196 26 20.2652 26 20C26 19.7348 25.8947 19.4804 25.7071 19.2929C25.5196 19.1054 25.2652 19 25 19Z" fill="#161621"/>
<rect x="0.5" y="0.5" width="39" height="39" rx="19.5" stroke="#161621"/>
</svg>
