<svg width="16" height="16" viewBox="0 0 16 16" fill="none" xmlns="http://www.w3.org/2000/svg">
<path d="M7.99984 1.33337C6.58535 1.33337 5.2288 1.89528 4.2286 2.89547C3.22841 3.89567 2.6665 5.25222 2.6665 6.66671C2.6665 10.2667 7.3665 14.3334 7.5665 14.5067C7.68726 14.61 7.84094 14.6668 7.99984 14.6668C8.15874 14.6668 8.31242 14.61 8.43317 14.5067C8.6665 14.3334 13.3332 10.2667 13.3332 6.66671C13.3332 5.25222 12.7713 3.89567 11.7711 2.89547C10.7709 1.89528 9.41432 1.33337 7.99984 1.33337ZM7.99984 13.1C6.57984 11.7667 3.99984 8.89337 3.99984 6.66671C3.99984 5.60584 4.42126 4.58843 5.17141 3.83828C5.92156 3.08813 6.93897 2.66671 7.99984 2.66671C9.0607 2.66671 10.0781 3.08813 10.8283 3.83828C11.5784 4.58843 11.9998 5.60584 11.9998 6.66671C11.9998 8.89337 9.41984 11.7734 7.99984 13.1ZM7.99984 4.00004C7.47242 4.00004 6.95685 4.15644 6.51832 4.44946C6.07979 4.74247 5.73799 5.15895 5.53616 5.64622C5.33432 6.13349 5.28152 6.66967 5.38441 7.18695C5.4873 7.70423 5.74128 8.17939 6.11422 8.55233C6.48716 8.92527 6.96231 9.17924 7.4796 9.28214C7.99688 9.38503 8.53306 9.33222 9.02033 9.13039C9.5076 8.92855 9.92407 8.58676 10.2171 8.14823C10.5101 7.7097 10.6665 7.19412 10.6665 6.66671C10.6665 5.95946 10.3856 5.28119 9.88546 4.78109C9.38536 4.28099 8.70708 4.00004 7.99984 4.00004ZM7.99984 8.00004C7.73613 8.00004 7.47834 7.92184 7.25908 7.77533C7.03981 7.62883 6.86891 7.42059 6.768 7.17695C6.66708 6.93332 6.64068 6.66523 6.69212 6.40659C6.74357 6.14795 6.87056 5.91037 7.05703 5.7239C7.2435 5.53743 7.48108 5.41044 7.73972 5.35899C7.99836 5.30755 8.26645 5.33395 8.51008 5.43487C8.75372 5.53578 8.96195 5.70668 9.10846 5.92595C9.25497 6.14521 9.33317 6.403 9.33317 6.66671C9.33317 7.02033 9.19269 7.35947 8.94265 7.60952C8.6926 7.85956 8.35346 8.00004 7.99984 8.00004Z" fill="#FAFAFA"/>
</svg>
