<svg width="64" height="64" viewBox="0 0 64 64" fill="none" xmlns="http://www.w3.org/2000/svg">
<rect x="0.5" y="0.5" width="63" height="63" rx="31.5" fill="#EFA930"/>
<path d="M44 30.6667H42.5734C42.2758 28.3201 41.2066 26.1388 39.5339 24.4662C37.8613 22.7935 35.68 21.7243 33.3334 21.4267V20.0001C33.3334 19.6465 33.1929 19.3073 32.9428 19.0573C32.6928 18.8072 32.3536 18.6667 32 18.6667C31.6464 18.6667 31.3073 18.8072 31.0572 19.0573C30.8072 19.3073 30.6667 19.6465 30.6667 20.0001V21.4267C28.32 21.7243 26.1388 22.7935 24.4661 24.4662C22.7935 26.1388 21.7243 28.3201 21.4267 30.6667H20C19.6464 30.6667 19.3073 30.8072 19.0572 31.0573C18.8072 31.3073 18.6667 31.6465 18.6667 32.0001C18.6667 32.3537 18.8072 32.6928 19.0572 32.9429C19.3073 33.1929 19.6464 33.3334 20 33.3334H21.4267C21.7243 35.6801 22.7935 37.8613 24.4661 39.534C26.1388 41.2066 28.32 42.2758 30.6667 42.5734V44.0001C30.6667 44.3537 30.8072 44.6928 31.0572 44.9429C31.3073 45.1929 31.6464 45.3334 32 45.3334C32.3536 45.3334 32.6928 45.1929 32.9428 44.9429C33.1929 44.6928 33.3334 44.3537 33.3334 44.0001V42.5734C35.68 42.2758 37.8613 41.2066 39.5339 39.534C41.2066 37.8613 42.2758 35.6801 42.5734 33.3334H44C44.3536 33.3334 44.6928 33.1929 44.9428 32.9429C45.1929 32.6928 45.3334 32.3537 45.3334 32.0001C45.3334 31.6465 45.1929 31.3073 44.9428 31.0573C44.6928 30.8072 44.3536 30.6667 44 30.6667ZM38.6667 33.3334H39.88C39.6021 34.9687 38.8228 36.4771 37.6499 37.65C36.4771 38.8229 34.9686 39.6022 33.3334 39.8801V38.6667C33.3334 38.3131 33.1929 37.974 32.9428 37.7239C32.6928 37.4739 32.3536 37.3334 32 37.3334C31.6464 37.3334 31.3073 37.4739 31.0572 37.7239C30.8072 37.974 30.6667 38.3131 30.6667 38.6667V39.8801C29.0314 39.6022 27.523 38.8229 26.3501 37.65C25.1772 36.4771 24.3979 34.9687 24.12 33.3334H25.3334C25.687 33.3334 26.0261 33.1929 26.2762 32.9429C26.5262 32.6928 26.6667 32.3537 26.6667 32.0001C26.6667 31.6465 26.5262 31.3073 26.2762 31.0573C26.0261 30.8072 25.687 30.6667 25.3334 30.6667H24.12C24.3979 29.0315 25.1772 27.523 26.3501 26.3502C27.523 25.1773 29.0314 24.398 30.6667 24.1201V25.3334C30.6667 25.687 30.8072 26.0262 31.0572 26.2762C31.3073 26.5263 31.6464 26.6667 32 26.6667C32.3536 26.6667 32.6928 26.5263 32.9428 26.2762C33.1929 26.0262 33.3334 25.687 33.3334 25.3334V24.1201C34.9686 24.398 36.4771 25.1773 37.6499 26.3502C38.8228 27.523 39.6021 29.0315 39.88 30.6667H38.6667C38.3131 30.6667 37.9739 30.8072 37.7239 31.0573C37.4738 31.3073 37.3334 31.6465 37.3334 32.0001C37.3334 32.3537 37.4738 32.6928 37.7239 32.9429C37.9739 33.1929 38.3131 33.3334 38.6667 33.3334ZM32 30.6667C31.7363 30.6667 31.4785 30.7449 31.2593 30.8915C31.04 31.038 30.8691 31.2462 30.7682 31.4898C30.6673 31.7335 30.6409 32.0016 30.6923 32.2602C30.7438 32.5188 30.8707 32.7564 31.0572 32.9429C31.2437 33.1294 31.4813 33.2563 31.7399 33.3078C31.9985 33.3592 32.2666 33.3328 32.5103 33.2319C32.7539 33.131 32.9621 32.9601 33.1086 32.7408C33.2552 32.5216 33.3334 32.2638 33.3334 32.0001C33.3334 31.6465 33.1929 31.3073 32.9428 31.0573C32.6928 30.8072 32.3536 30.6667 32 30.6667Z" fill="#FBFBFB"/>
<rect x="0.5" y="0.5" width="63" height="63" rx="31.5" stroke="#EFA930"/>
</svg>
