<svg width="40" height="40" viewBox="0 0 40 40" fill="none" xmlns="http://www.w3.org/2000/svg">
<path d="M25.92 19.62C25.8724 19.4973 25.801 19.3851 25.71 19.29L20.71 14.29C20.6168 14.1968 20.5061 14.1228 20.3842 14.0723C20.2624 14.0219 20.1319 13.9959 20 13.9959C19.7337 13.9959 19.4783 14.1017 19.29 14.29C19.1968 14.3832 19.1228 14.4939 19.0723 14.6158C19.0219 14.7376 18.9959 14.8681 18.9959 15C18.9959 15.2663 19.1017 15.5217 19.29 15.71L22.59 19H15C14.7348 19 14.4804 19.1054 14.2929 19.2929C14.1054 19.4804 14 19.7348 14 20C14 20.2652 14.1054 20.5196 14.2929 20.7071C14.4804 20.8946 14.7348 21 15 21H22.59L19.29 24.29C19.1963 24.383 19.1219 24.4936 19.0711 24.6154C19.0203 24.7373 18.9942 24.868 18.9942 25C18.9942 25.132 19.0203 25.2627 19.0711 25.3846C19.1219 25.5064 19.1963 25.617 19.29 25.71C19.383 25.8037 19.4936 25.8781 19.6154 25.9289C19.7373 25.9797 19.868 26.0058 20 26.0058C20.132 26.0058 20.2627 25.9797 20.3846 25.9289C20.5064 25.8781 20.617 25.8037 20.71 25.71L25.71 20.71C25.801 20.6149 25.8724 20.5028 25.92 20.38C26.02 20.1365 26.02 19.8635 25.92 19.62Z" fill="#161621"/>
<rect x="0.5" y="0.5" width="39" height="39" rx="19.5" stroke="#161621"/>
</svg>
