<svg width="24" height="24" viewBox="0 0 24 24" fill="none" xmlns="http://www.w3.org/2000/svg">
<path fill-rule="evenodd" clip-rule="evenodd" d="M3.18051 13.9998C1.52679 14.0045 0.459269 15.8884 1.47807 17.3157C2.93709 19.3596 5.58284 21 9.99986 21C16.845 21 22.3396 15.4217 21.5704 8.8311L22.6973 6.5773C23.4788 5.01428 22.1208 3.23622 20.4072 3.57894L18.9184 3.87669C18.5237 3.66843 18.1152 3.51127 17.7661 3.39741C17.0857 3.17552 16.2622 3 15.4999 3C14.1306 3 12.9488 3.35131 12.0096 4.05593C11.0811 4.75264 10.5581 5.66825 10.2711 6.50905C10.1388 6.89661 10.0507 7.28534 9.99413 7.65843C9.46286 7.49123 8.92115 7.26626 8.39081 6.99155C7.18761 6.36832 6.21466 5.57822 5.66581 4.88551C4.74498 3.7233 2.79354 3.80947 2.10876 5.32021C1.14362 7.44947 1.40837 9.97346 2.27591 12.0129C2.56669 12.6964 2.94494 13.3721 3.40705 13.9983C3.32794 13.9992 3.25226 13.9996 3.18051 13.9998ZM9.99976 19C6.13642 19 4.13875 17.6007 3.1058 16.1537C3.05939 16.0887 3.10619 16 3.18606 15.9998C4.2369 15.9968 6.3939 15.9471 7.8165 15.1145C7.89007 15.0714 7.87388 14.9629 7.79308 14.9358C4.47691 13.8208 2.59188 9.09859 3.93026 6.1459C3.96095 6.0782 4.05195 6.06927 4.09812 6.12754C5.62699 8.05718 8.96979 9.9472 11.8782 9.99891C11.9413 10 11.989 9.9427 11.9794 9.88033C11.8622 9.12053 11.4147 5 15.4998 5C16.4753 5 17.9267 5.47583 18.4613 5.9633C18.486 5.98583 18.5195 5.99606 18.5523 5.9895L20.7993 5.5401C20.8809 5.52378 20.9456 5.60845 20.9084 5.68288L19.5147 8.47019C19.505 8.48954 19.502 8.51175 19.5057 8.53306C20.4818 14.02 15.9878 19 9.99976 19Z" fill="#777E91"/>
</svg>
