<svg width="64" height="64" viewBox="0 0 64 64" fill="none" xmlns="http://www.w3.org/2000/svg">
<rect x="0.5" y="0.5" width="63" height="63" rx="31.5" fill="#EFA930"/>
<path d="M45.2267 31.4666C42.5333 25.2133 37.4667 21.3333 32 21.3333C26.5333 21.3333 21.4667 25.2133 18.7733 31.4666C18.6999 31.6348 18.662 31.8164 18.662 31.9999C18.662 32.1835 18.6999 32.365 18.7733 32.5333C21.4667 38.7866 26.5333 42.6666 32 42.6666C37.4667 42.6666 42.5333 38.7866 45.2267 32.5333C45.3001 32.365 45.338 32.1835 45.338 31.9999C45.338 31.8164 45.3001 31.6348 45.2267 31.4666ZM32 39.9999C27.76 39.9999 23.7733 36.9466 21.4667 31.9999C23.7733 27.0533 27.76 23.9999 32 23.9999C36.24 23.9999 40.2267 27.0533 42.5333 31.9999C40.2267 36.9466 36.24 39.9999 32 39.9999ZM32 26.6666C30.9452 26.6666 29.914 26.9794 29.037 27.5654C28.1599 28.1514 27.4763 28.9844 27.0726 29.9589C26.669 30.9335 26.5634 32.0058 26.7691 33.0404C26.9749 34.075 27.4829 35.0253 28.2288 35.7712C28.9746 36.517 29.925 37.025 30.9595 37.2308C31.9941 37.4366 33.0664 37.3309 34.041 36.9273C35.0155 36.5236 35.8485 35.84 36.4345 34.963C37.0205 34.0859 37.3333 33.0548 37.3333 31.9999C37.3333 30.5854 36.7714 29.2289 35.7712 28.2287C34.771 27.2285 33.4145 26.6666 32 26.6666ZM32 34.6666C31.4726 34.6666 30.957 34.5102 30.5185 34.2172C30.0799 33.9242 29.7382 33.5077 29.5363 33.0204C29.3345 32.5331 29.2817 31.997 29.3846 31.4797C29.4875 30.9624 29.7414 30.4872 30.1144 30.1143C30.4873 29.7414 30.9625 29.4874 31.4798 29.3845C31.997 29.2816 32.5332 29.3344 33.0205 29.5362C33.5078 29.7381 33.9242 30.0799 34.2172 30.5184C34.5103 30.9569 34.6667 31.4725 34.6667 31.9999C34.6667 32.7072 34.3857 33.3854 33.8856 33.8855C33.3855 34.3856 32.7072 34.6666 32 34.6666Z" fill="#FBFBFB"/>
<rect x="0.5" y="0.5" width="63" height="63" rx="31.5" stroke="#EFA930"/>
</svg>
